<svg width="300" height="300" viewBox="0 0 300 300" xmlns="http://www.w3.org/2000/svg"><title>poster/canvas-helpers</title><g fill="#FFF" fill-rule="evenodd" opacity=".303"><path d="M161.398 113.625l-35.547 35.234c-1.51 1.459-3.19 2.552-5.04 3.282a15.316 15.316 0 0 1-5.663 1.093c-1.927 0-3.815-.364-5.664-1.093-1.85-.73-3.529-1.823-5.04-3.282-2.916-2.916-4.374-6.445-4.374-10.586 0-4.14 1.458-7.669 4.375-10.585l32.03-31.641c1.98-1.98 4.363-2.969 7.15-2.969 2.786 0 5.169.99 7.148 2.969 1.927 1.927 2.89 4.27 2.89 7.031 0 2.76-.963 5.104-2.89 7.031l-32.11 31.72c-.937.937-2.109 1.405-3.515 1.405-1.407 0-2.604-.468-3.594-1.406-.99-.99-1.484-2.174-1.484-3.555 0-1.38.494-2.565 1.484-3.554l28.516-28.125-3.594-3.516-28.438 28.125c-1.979 1.98-2.968 4.336-2.968 7.07 0 2.735.99 5.092 2.968 7.07 1.927 1.928 4.284 2.891 7.07 2.891 2.787 0 5.17-.963 7.15-2.89l32.03-31.719c2.97-2.917 4.453-6.432 4.453-10.547 0-4.114-1.484-7.63-4.453-10.547a14.38 14.38 0 0 0-5-3.281c-1.875-.73-3.776-1.094-5.703-1.094-1.927 0-3.815.365-5.664 1.094-1.849.73-3.502 1.823-4.96 3.281L99.131 125.97l.078.078c-1.51 1.98-2.617 4.114-3.32 6.406a19.93 19.93 0 0 0-.86 6.992c.13 2.37.69 4.662 1.68 6.875.99 2.214 2.396 4.232 4.219 6.055a19.024 19.024 0 0 0 6.055 4.102c2.265.963 4.583 1.51 6.953 1.64a21.13 21.13 0 0 0 7.07-.82 19.554 19.554 0 0 0 6.484-3.281l.079.078 37.421-36.953-3.593-3.516zM76.39 16.047L71.548 28H36.39l-4.844-11.953c-1.51 0-2.813.547-3.906 1.64C26.547 18.782 26 20.084 26 21.595v60.86c0 1.51.547 2.812 1.64 3.905C28.735 87.453 30.037 88 31.548 88H76.39c1.51 0 2.812-.547 3.906-1.64 1.094-1.094 1.64-2.396 1.64-3.907v-60.86c0-1.51-.546-2.812-1.64-3.905-1.094-1.094-2.396-1.641-3.906-1.641zm-8.046 7.969l3.594-7.97h-8.672L60.375 8H47.562l-2.89 8.047H36l3.594 7.969h28.75z"/></g></svg>