<?xml version="1.0" standalone="no"?> <!DOCTYPE svg PUBLIC "-//W3C//DTD SVG 1.0//EN" "http://www.w3.org/TR/2001/REC-SVG-20010904/DTD/svg10.dtd" > <svg xmlns="http://www.w3.org/2000/svg" width="100%" height="100%">
<defs >
<font id="UniversLTStd-Bold" horiz-adv-x="552" ><font-face
    font-family="Univers LT Std 45 Light"
    units-per-em="1000"
    panose-1="2 11 7 3 3 5 2 2 2 4"
    ascent="724"
    descent="-276"
    alphabetic="0" />
<missing-glyph horiz-adv-x="500" d="M0 0V700H500V0H0ZM250 395L420 650H80L250 395ZM280 350L450 95V605L280 350ZM80 50H420L250 305L80 50ZM50 605V95L220 350L50 605Z" />
<glyph unicode=" " glyph-name="space" horiz-adv-x="278" />
<glyph unicode="!" glyph-name="exclam" horiz-adv-x="389" d="M244 197H141L123 723H257L244 197ZM129 0V133H256V0H129Z" />
<glyph unicode="&quot;" glyph-name="quotedbl" horiz-adv-x="474" d="M73 697H206L179 449H100L73 697ZM265 697H397L371 449H292L265 697Z" />
<glyph unicode="#" glyph-name="numbersign" horiz-adv-x="556" d="M-9 175V285H94L116 406H34V516H137L170 697H298L265 516H360L393 697H522L488 516H571V406H468L446 285H528V175H425L393 0H265L298 175H202L170 0H41L73 175H-9ZM222 285H317L340 406H245L222 285Z" />
<glyph unicode="$" glyph-name="dollar" horiz-adv-x="556" d="M24 215H160Q159 180 168 156T194 122T222 108T245 104V281Q197 294 166 307T103 343T54 401T38 485Q38 561 89 617Q115 645 150 662T203 682T251 688V772H306V690Q414 682 466 630Q513 583 516 493H382Q380
544 361 562T304 585V407Q356 394 387 383T453 349T506 290T523 202Q523 102 438 41Q384 3 297 -2V-102H244V-2Q146 -5 79 57Q27 105 24 215ZM250 422V583Q213 581 194 560T174 505Q174 467 193 450T250 422ZM299 270V102Q333 105 356 127T380 187Q380 219 361
238T299 270Z" />
<glyph unicode="%" glyph-name="percent" horiz-adv-x="889" d="M50 569Q50 762 217 762Q257 762 287 752T334 725T362 684T376 635T380 579Q380 379 210 379Q50 379 50 569ZM158 573Q158 514 170 488T213 461Q241 461 256 486T271 578Q271 684 217 684Q158 684
158 573ZM510 182Q510 206 511 222T521 270T546 322T596 358T677 374Q727 374 760 360T810 318T833 261T840 192Q840 -9 669 -9Q510 -9 510 182ZM617 185Q617 126 629 100T673 73Q701 73 716 98T731 190Q731 296 676 296Q617 296 617 185ZM593 769H668L288 -12H213L593
769Z" />
<glyph unicode="&amp;" glyph-name="ampersand" horiz-adv-x="778" d="M559 449H707Q707 357 689 289T626 150L773 -2H586L530 65Q498 41 475 27T402 -3T296 -19Q175 -19 99 39T23 199Q23 276 75 341Q109 384 174 425Q87 498 87 578Q87 594 90 612T108 654T144
697T209 729T308 742Q353 742 389 734T447 713T486 683T510 648T521 614T524 584Q524 545 509 512T467 456T424 421T384 397L530 250Q549 303 554 342T559 449ZM307 475Q380 527 380 580Q380 609 361 627T308 646T255 629T235 582Q235 562 252 536T283 497T307
475ZM439 145L257 330Q179 279 179 211Q179 156 216 124T306 91Q373 91 439 145Z" />
<glyph unicode="&apos;" glyph-name="quotesingle" horiz-adv-x="238" d="M78 449L51 697H184L157 449H78Z" />
<glyph unicode="(" glyph-name="parenleft" horiz-adv-x="333" d="M164 757H273Q247 679 234 633T203 493T185 316Q185 223 203 138T272 -123H163Q62 123 62 311Q62 497 164 757Z" />
<glyph unicode=")" glyph-name="parenright" horiz-adv-x="333" d="M169 -123H60Q86 -45 99 1T130 141T148 318Q148 411 130 495T61 757H170Q271 512 271 324Q271 139 169 -123Z" />
<glyph unicode="*" glyph-name="asterisk" horiz-adv-x="556" d="M67 465V571L219 549L125 668L218 719L274 581L333 722L426 667L328 549L481 567L479 461L330 484L424 361L331 310L273 451L215 309L125 363L218 485L67 465Z" />
<glyph unicode="+" glyph-name="plus" horiz-adv-x="584" d="M225 0V202H26V331H225V533H359V331H558V202H359V0H225Z" />
<glyph unicode="," glyph-name="comma" horiz-adv-x="278" d="M102 133H250L131 -113H28L102 133Z" />
<glyph unicode="-" glyph-name="hyphen" horiz-adv-x="333" d="M44 208V321H292V208H44Z" />
<glyph unicode="." glyph-name="period" horiz-adv-x="278" d="M74 0V133H201V0H74Z" />
<glyph unicode="/" glyph-name="slash" horiz-adv-x="444" d="M300 718H415L146 0H29L300 718Z" />
<glyph unicode="0" glyph-name="zero" horiz-adv-x="556" d="M38 347Q38 372 39 397T47 459T63 528T91 595T134 653T197 692T281 708Q347 708 392 681T463 616Q526 523 526 364Q526 310 521 263T499 163T457 74T385 13T279 -11Q214 -11 166 18T91 98T51 212T38
347ZM376 339Q376 447 358 511Q356 521 352 532T340 558T316 582T282 592Q233 592 213 532Q190 461 190 337Q190 107 283 107T376 339Z" />
<glyph unicode="1" glyph-name="one" horiz-adv-x="556" d="M95 454V593Q194 636 280 698H409V0H258V543Q194 494 95 454Z" />
<glyph unicode="2" glyph-name="two" horiz-adv-x="556" d="M25 0V141L206 306Q276 369 311 412Q340 446 349 467T359 513Q359 553 337 577T276 602Q248 602 229 590T202 558T192 526T188 500H35Q35 580 76 631Q137 707 275 707Q386 707 448 654T511 517Q511 485
501 456T460 379T359 264T181 109Q219 110 274 111T373 113Q501 115 515 116V0H25Z" />
<glyph unicode="3" glyph-name="three" horiz-adv-x="556" d="M22 190H174Q178 97 264 97Q305 97 329 124T354 192Q354 222 342 242T316 273T274 288T229 294T182 295V412Q207 413 220 413T257 417T295 427T325 445T348 474T355 516Q355 555 330 577T269 599Q234
599 209 576T184 512H31Q38 589 72 630Q135 707 266 707Q329 707 377 689T450 640T488 579T501 517Q501 398 367 359Q418 343 450 316Q507 268 507 191Q507 102 435 44T254 -15T86 32Q22 85 22 190Z" />
<glyph unicode="4" glyph-name="four" horiz-adv-x="556" d="M296 152H16V287L296 698H445L444 267H539V152H444V0H296V152ZM306 525L128 264H304V448Q304 489 306 525Z" />
<glyph unicode="5" glyph-name="five" horiz-adv-x="556" d="M31 172H179Q178 160 183 144T209 111T261 94Q305 94 334 127T364 225Q364 280 341 315T271 350Q204 350 182 280L37 284L53 697H476V583H185L176 410Q193 425 203 432T243 450T308 460Q395 460 454
400T514 238Q514 191 500 148T458 68T379 8T265 -15Q134 -15 70 61Q34 105 31 172Z" />
<glyph unicode="6" glyph-name="six" horiz-adv-x="556" d="M519 525H371Q369 560 349 577T298 594Q269 594 249 580T218 547T202 497T195 447T193 398Q254 454 330 454Q410 454 470 397T530 233Q530 119 456 51Q386 -14 278 -14Q228 -14 189 0T125 33T82 85T56
142T43 204T38 258T37 303Q37 575 150 658Q215 707 311 707Q397 707 457 661T519 525ZM287 98Q325 98 354 128T383 223Q383 279 358 311T293 343Q281 343 267 339T234 323T204 285T192 220Q192 159 219 129T287 98Z" />
<glyph unicode="7" glyph-name="seven" horiz-adv-x="556" d="M37 581V697H510V573L270 0H103L358 581H37Z" />
<glyph unicode="8" glyph-name="eight" horiz-adv-x="556" d="M174 366Q42 407 42 515Q42 589 104 649T283 710Q387 710 453 657T520 521Q520 461 480 419T383 368Q405 362 417 358T454 337T495 296Q527 251 527 192Q527 99 453 44T271 -11Q166 -11 99 48T31 192Q31
265 82 314Q114 345 174 366ZM241 423T281 423T348 447T375 513T348 577T282 600T218 576T191 513Q191 475 216 449ZM281 96Q319 96 349 122T380 202Q380 248 351 275T280 303Q237 303 209 274T180 200Q180 150 210 123T281 96Z" />
<glyph unicode="9" glyph-name="nine" horiz-adv-x="556" d="M33 170H184Q187 138 206 120T257 102Q294 102 318 119T352 169T364 232T366 306Q313 258 240 258Q191 258 152 273T90 311T52 364T31 422T25 477Q25 577 92 641T272 706Q322 706 361 693T426 659T469
607T497 548T511 482T517 421T518 366Q518 257 500 183T446 66T363 5T249 -13Q228 -13 211 -12T157 -1T97 26T53 81T33 170ZM267 373Q317 373 340 407T363 487Q363 534 339 563T270 593Q221 593 197 561T173 483Q173 470 176 455T187 420T216 386T267 373Z" />
<glyph unicode=":" glyph-name="colon" horiz-adv-x="278" d="M76 0V134H202V0H76ZM76 370V505H202V370H76Z" />
<glyph unicode=";" glyph-name="semicolon" horiz-adv-x="278" d="M80 370V505H206V370H80ZM87 133H235L116 -113H13L87 133Z" />
<glyph unicode="&lt;" glyph-name="less" horiz-adv-x="584" d="M26 200V334L558 540V400L186 267L558 134V-7L26 200Z" />
<glyph unicode="=" glyph-name="equal" horiz-adv-x="584" d="M26 318V447H558V318H26ZM26 86V215H558V86H26Z" />
<glyph unicode="&gt;" glyph-name="greater" horiz-adv-x="584" d="M559 200L26 -7V134L398 267L26 400V540L559 334V200Z" />
<glyph unicode="?" glyph-name="question" horiz-adv-x="500" d="M256 162H142V255Q142 301 179 343L223 392Q299 478 299 537Q299 550 296 563T282 594T245 624T179 636Q134 636 46 612V716Q122 736 215 736Q278 736 329 718T417 657T453 549Q453 494 425 453Q395
410 373 390L316 339Q277 304 267 287T256 243V162ZM139 0V120H259V0H139Z" />
<glyph unicode="@" glyph-name="at" horiz-adv-x="975" d="M773 135L807 90Q725 31 653 7T502 -18Q332 -18 225 85T118 352Q118 526 235 632T519 738Q661 738 759 659T857 437Q857 330 798 255T653 179Q603 179 577 211Q562 230 560 258Q515 173 427 173Q368 173
331 214T293 326Q293 417 351 490T492 563Q544 563 574 536Q589 522 597 502L610 547H709L649 341Q636 300 636 280Q636 263 646 254T670 245Q712 245 750 301T788 442Q788 505 764 553T699 627T613 667T517 680Q376 680 280 592T183 348Q183 206 273 123T506 40T773
135ZM411 311Q411 304 412 296T418 275T433 254T461 245Q501 245 528 305Q540 331 549 365T561 420T565 444Q565 463 552 477T516 491Q476 491 444 435T411 311Z" />
<glyph unicode="A" glyph-name="A" horiz-adv-x="722" d="M266 723H450L701 0H545L493 156H207L153 0H5L266 723ZM247 273H454L354 581L247 273Z" />
<glyph unicode="B" glyph-name="B" horiz-adv-x="667" d="M68 0V722H338Q461 722 516 688Q597 636 597 534Q597 465 555 426Q547 417 524 401T473 377V375Q550 361 588 312T626 199Q626 139 596 96T520 29Q464 0 338 0H68ZM216 611V428H324Q343 428 354 428T386
434T417 448T438 475T448 521Q448 547 439 565T419 591T387 605T355 610T321 611H216ZM216 316V116H321Q350 116 365 116T404 122T440 136T462 165T472 213Q472 243 461 263T436 294T395 309T352 315T305 316H216Z" />
<glyph unicode="C" glyph-name="C" horiz-adv-x="667" d="M634 487H476Q461 614 359 614Q277 614 237 540T196 345Q196 326 197 311T201 263T215 204T240 153T283 112T347 97Q400 97 437 131T477 234H640Q638 202 635 183T617 128T575 64Q496 -17 364 -17Q274
-17 208 14T105 98T51 213T34 346Q34 519 123 623T365 727Q484 727 559 661T634 487Z" />
<glyph unicode="D" glyph-name="D" horiz-adv-x="722" d="M65 0V721L304 720Q465 720 553 655Q617 608 646 532T676 371Q676 214 604 121T420 8Q377 0 290 0H65ZM222 604V119Q256 117 283 117Q342 117 381 126T451 167Q516 232 516 371Q516 454 484 514T384 594Q331
609 222 604Z" />
<glyph unicode="E" glyph-name="E" horiz-adv-x="611" d="M74 0V723H558V605H229V433H537V315H229V120H569V0H74Z" />
<glyph unicode="F" glyph-name="F" horiz-adv-x="556" d="M69 0V722H535V606H224V428H514V308H224V0H69Z" />
<glyph unicode="G" glyph-name="G" horiz-adv-x="778" d="M715 501H554Q552 547 534 574Q499 630 413 630Q351 630 307 604T241 533T211 446T202 355Q202 226 262 161Q318 99 432 99Q502 99 550 113V265H410V385H705V24Q585 -16 441 -16Q232 -16 134 80Q38 174
38 350Q38 537 143 640T417 743Q583 743 663 652Q713 595 715 501Z" />
<glyph unicode="H" glyph-name="H" horiz-adv-x="722" d="M67 0V723H222V434H495V723H652V0H497V317H222V0H67Z" />
<glyph unicode="I" glyph-name="I" horiz-adv-x="278" d="M60 0V725H215V0H60Z" />
<glyph unicode="J" glyph-name="J" horiz-adv-x="556" d="M9 234H161Q163 171 182 139T246 106Q309 106 325 167Q331 197 331 280V723H488V279Q488 187 464 125T376 24Q325 -7 236 -7Q171 -7 125 12T47 81Q12 134 9 234Z" />
<glyph unicode="K" glyph-name="K" horiz-adv-x="667" d="M67 0V721H222V410L464 723H645L380 399L668 0H475L222 368V0H67Z" />
<glyph unicode="L" glyph-name="L" horiz-adv-x="556" d="M69 0V722H227V123H537V0H69Z" />
<glyph unicode="M" glyph-name="M" horiz-adv-x="944" d="M60 0V723H313L466 197L631 723H877V0H723V620L526 0H398L205 620V0H60Z" />
<glyph unicode="N" glyph-name="N" horiz-adv-x="778" d="M72 0V723H296L567 154V723H711V0H498L218 600V0H72Z" />
<glyph unicode="O" glyph-name="O" horiz-adv-x="778" d="M42 351Q42 427 60 493T117 615T225 705T389 738Q556 738 643 640Q735 535 735 368Q735 287 711 210T644 85Q552 -18 387 -18Q226 -18 131 81Q42 176 42 351ZM204 356Q204 224 258 154Q301 96 389 96Q481
96 524 163Q573 236 573 370Q573 446 555 499Q512 627 390 627Q305 627 257 566Q204 501 204 356Z" />
<glyph unicode="P" glyph-name="P" horiz-adv-x="611" d="M65 0V721H288Q381 721 439 706T539 642Q583 589 583 507Q583 444 559 394T491 315Q438 281 327 281H222V0H65ZM218 604V396H280Q302 396 315 396T351 403T387 419T412 452T423 506Q423 540 411 562T375
592T336 602T296 604H218Z" />
<glyph unicode="Q" glyph-name="Q" horiz-adv-x="778" d="M761 111V-2Q671 0 583 0Q575 0 558 -1T513 -3T466 -5Q368 -11 352 -11Q275 -11 216 16T123 84T69 177T41 273T34 356Q34 432 54 499T115 620T224 705T382 737Q527 737 617 642T708 373Q708 207 599 104Q663
116 761 111ZM194 365Q194 321 201 280T227 196T282 127T371 101Q415 101 448 119T500 164T531 229T547 301T551 375Q551 492 506 560Q463 627 376 627Q327 627 291 605T234 545T204 462T194 365Z" />
<glyph unicode="R" glyph-name="R" horiz-adv-x="667" d="M60 0V723H337Q389 724 419 722T489 709T556 674Q619 619 619 535Q619 401 468 358Q500 355 522 345T557 324T578 287T590 246T598 192Q612 84 620 52Q628 22 642 0H471Q469 13 461 73T444 186T432 251Q426
270 411 279T384 290T354 292H218V0H60ZM213 609V407H338Q392 407 417 427Q457 456 457 511Q457 568 419 592Q403 604 382 606T317 609H213Z" />
<glyph unicode="S" glyph-name="S" horiz-adv-x="667" d="M35 231H193Q193 214 193 203T201 169T220 132T259 106T324 94Q387 94 424 121T461 195Q461 239 433 256T324 292Q185 327 122 374T58 511Q58 608 130 671T344 735Q494 735 562 650Q603 598 603 516H454Q445
626 337 626Q283 626 251 599T218 528Q218 482 250 464T375 423Q422 412 450 404T515 379T572 343T608 291T623 218Q623 116 542 50T315 -17Q258 -17 213 -7T139 19T89 59T58 103T43 152T36 195T35 231Z" />
<glyph unicode="T" glyph-name="T" horiz-adv-x="611" d="M229 0V603H14V723H600V603H385V0H229Z" />
<glyph unicode="U" glyph-name="U" horiz-adv-x="778" d="M72 721H227V281Q227 251 228 232T239 185T263 142T310 115T384 103Q483 103 524 166Q547 200 547 289V721H698V270Q698 193 670 136T594 47T493 1T381 -14Q187 -14 109 111Q85 148 79 188T72 289V721Z" />
<glyph unicode="V" glyph-name="V" horiz-adv-x="722" d="M12 720H181L370 153L560 720H713L447 0H278L12 720Z" />
<glyph unicode="W" glyph-name="W" horiz-adv-x="1000" d="M15 720H175L287 179L428 720H603L730 179L847 720H995L811 -2H639L508 550L367 -2H191L15 720Z" />
<glyph unicode="X" glyph-name="X" horiz-adv-x="722" d="M30 723H221L367 477L523 723H689L451 375L703 0H513L352 272L179 0H13L267 374L30 723Z" />
<glyph unicode="Y" glyph-name="Y" horiz-adv-x="667" d="M16 720H197L346 391L498 720H657L413 263V0H260V265L16 720Z" />
<glyph unicode="Z" glyph-name="Z" horiz-adv-x="611" d="M27 0V132L405 605L50 602V720H573V583L196 113L581 119V0H27Z" />
<glyph unicode="[" glyph-name="bracketleft" horiz-adv-x="333" d="M287 752V660H178V-30H287V-123H58V752H287Z" />
<glyph unicode="\" glyph-name="backslash" horiz-adv-x="278" d="M29 718H144L415 0H298L29 718Z" />
<glyph unicode="]" glyph-name="bracketright" horiz-adv-x="333" d="M46 660V752H275V-123H46V-30H155V660H46Z" />
<glyph unicode="^" glyph-name="asciicircum" horiz-adv-x="584" d="M51 264L232 697H349L530 264H392L289 536L189 264H51Z" />
<glyph unicode="_" glyph-name="underscore" horiz-adv-x="500" d="M0 -125V-75H500V-125H0Z" />
<glyph unicode="`" glyph-name="grave" horiz-adv-x="278" d="M128 730L212 585H127L-12 730H128Z" />
<glyph unicode="a" glyph-name="a" horiz-adv-x="556" d="M502 0H368Q363 31 363 69Q307 -12 212 -12Q128 -12 86 28Q42 72 42 139Q42 247 149 296Q211 324 349 324Q349 370 342 391Q327 433 276 433Q239 433 220 405Q209 388 209 360H64Q67 440 121 479Q178 520
274 520Q398 520 454 455Q489 413 489 331L490 128Q490 56 502 0ZM349 238Q276 244 231 222T186 156Q186 128 205 106T258 84Q296 84 321 113Q339 135 344 162T349 238Z" />
<glyph unicode="b" glyph-name="b" horiz-adv-x="611" d="M60 0V721H208V444Q260 512 351 512Q446 512 508 441T571 245Q571 177 553 126T503 47T436 4T360 -10Q255 -10 208 71Q205 16 203 0H60ZM420 240Q420 413 311 413T202 257Q202 174 234 131T318 87Q347
87 367 101T398 132T413 175T419 213T420 240Z" />
<glyph unicode="c" glyph-name="c" horiz-adv-x="500" d="M477 326H332Q322 419 267 419Q189 419 189 258Q189 143 226 103Q242 86 266 86Q274 86 282 89T303 100T323 130T334 183H480Q475 85 415 34Q360 -13 271 -13Q158 -13 99 54Q35 128 35 253Q35 318 53 368T98
445T159 488T220 510T271 515Q352 515 414 468T477 326Z" />
<glyph unicode="d" glyph-name="d" horiz-adv-x="611" d="M399 443V722H548V82Q548 38 552 0H402L398 73Q377 35 347 16Q307 -10 249 -10Q148 -10 91 56T34 241Q34 365 95 438T257 512Q349 512 399 443ZM184 245Q184 176 209 131T286 86Q317 86 342 102T380 143Q404
189 404 262T375 375T294 415Q259 415 236 397T202 348T188 294T184 245Z" />
<glyph unicode="e" glyph-name="e" horiz-adv-x="556" d="M523 215H184Q184 80 287 80Q358 80 375 150H510Q505 85 462 40Q406 -19 285 -19Q168 -19 107 44Q42 112 42 241Q42 407 147 480Q210 522 289 522Q351 522 406 494T493 400Q528 328 523 215ZM189 308H372Q372
323 370 336T361 372T334 407T284 421Q238 421 215 389T189 308Z" />
<glyph unicode="f" glyph-name="f" horiz-adv-x="333" d="M75 0V400H0V505H75V574Q75 650 112 692T249 735Q287 735 329 730V627Q307 630 298 630Q271 630 255 624T232 606T224 586T222 564V505H316V400H222V0H75Z" />
<glyph unicode="g" glyph-name="g" horiz-adv-x="611" d="M405 503H544Q537 433 537 378V5Q537 -199 285 -199Q73 -199 63 -37H205Q214 -107 293 -107Q328 -107 353 -90T385 -41Q391 -17 392 79Q340 10 256 10Q154 10 99 84T43 258Q43 361 99 434T259 508Q351
508 400 436L405 503ZM191 258Q191 239 193 223T203 177T233 129T290 111Q326 111 349 129T381 176T392 222T394 255Q394 409 293 409Q248 409 220 372T191 258Z" />
<glyph unicode="h" glyph-name="h" horiz-adv-x="611" d="M69 0V722H216V436Q270 512 362 512Q456 512 509 444Q542 398 542 307V0H395V302Q395 412 312 412Q274 412 246 388T217 309L218 0H69Z" />
<glyph unicode="i" glyph-name="i" horiz-adv-x="278" d="M60 593V722H218V593H60ZM65 0V506H213V0H65Z" />
<glyph unicode="j" glyph-name="j" horiz-adv-x="278" d="M-2 -194V-94Q21 -95 36 -87T56 -61T63 -34T65 -8V507H213V-45Q213 -121 176 -159T48 -198Q20 -198 -2 -194ZM60 593V722H218V593H60Z" />
<glyph unicode="k" glyph-name="k" horiz-adv-x="556" d="M67 0V723H214V297L367 508H534L361 288L545 0H370L214 275V0H67Z" />
<glyph unicode="l" glyph-name="l" horiz-adv-x="278" d="M65 0V723H213V0H65Z" />
<glyph unicode="m" glyph-name="m" horiz-adv-x="944" d="M68 0V410Q68 452 63 505H206L211 440Q266 516 367 516Q486 516 526 421Q575 515 688 515Q797 515 842 434Q867 393 867 294Q867 288 867 285V0H718V297Q718 330 714 352T689 392T633 411Q607 411 590
401T563 378T549 340T543 299T542 253V0H393V300Q393 321 391 335T383 369T358 400T310 411Q277 411 257 399T229 366T219 331T217 297V0H68Z" />
<glyph unicode="n" glyph-name="n" horiz-adv-x="611" d="M67 0V415Q67 472 64 507H206L210 431Q264 519 374 519Q440 519 477 490T528 424Q542 385 542 273V0H391V314Q391 353 383 369Q362 412 311 412T234 373Q216 347 216 296V0H67Z" />
<glyph unicode="o" glyph-name="o" horiz-adv-x="611" d="M42 248Q42 297 55 342T97 427T179 492T303 517Q433 517 499 442T565 252Q565 137 498 60T300 -18Q187 -18 115 51T42 248ZM194 247Q194 85 305 85Q358 85 386 124T414 258Q414 418 303 418Q194 418 194 247Z" />
<glyph unicode="p" glyph-name="p" horiz-adv-x="611" d="M60 505H204L208 433Q255 515 362 515Q460 515 516 447T572 263Q572 149 514 71T352 -7Q261 -7 211 58V-194H60V505ZM314 90Q366 90 394 135T422 257Q422 284 418 308T404 360T373 403T320 420Q275 420
240 380T204 248Q204 227 206 209T218 160T251 109T314 90Z" />
<glyph unicode="q" glyph-name="q" horiz-adv-x="611" d="M407 506H553Q553 503 552 462T550 409V-192H398V59Q343 -7 258 -7Q170 -7 103 59T36 259Q36 329 55 380T105 460T173 502T249 516Q352 516 402 433L407 506ZM187 255Q187 171 220 127Q246 91 298 91Q332
91 355 107T388 151T402 202T406 252T402 302T387 355T351 401T290 419Q187 419 187 255Z" />
<glyph unicode="r" glyph-name="r" horiz-adv-x="389" d="M65 0V381Q65 439 58 507H197L200 410Q209 431 218 445T247 476T298 502T372 508V375Q319 380 285 371T236 340T217 299T213 249V0H65Z" />
<glyph unicode="s" glyph-name="s" horiz-adv-x="500" d="M29 146H168Q170 118 190 98T252 77Q289 77 309 94T330 137Q330 156 316 169T260 194L168 219Q144 226 129 232T90 254T53 296T40 359Q40 432 101 474T261 517Q343 517 396 479T453 368H318Q314 428 246
428Q215 428 196 415T176 378T191 346T245 325L336 300Q471 263 471 159Q471 88 411 37T239 -15Q125 -15 66 47Q32 83 29 146Z" />
<glyph unicode="t" glyph-name="t" horiz-adv-x="389" d="M362 104V7Q303 -9 247 -9Q205 -9 175 2T130 26T108 61T99 96T98 127V404H1V502H98V601L245 655V502H365V404H245V176Q245 154 246 144T254 122T274 106T312 101Q335 101 362 104Z" />
<glyph unicode="u" glyph-name="u" horiz-adv-x="611" d="M60 505H210V204Q210 185 210 175T215 147T227 119T250 101T289 93Q317 93 335 102T363 122T378 158T383 199T384 250V505H536V172Q537 125 537 94T538 52T539 37Q540 19 543 0H399L394 67Q339 -13 245
-13Q196 -13 156 6T93 55Q60 96 60 191V505Z" />
<glyph unicode="v" glyph-name="v" horiz-adv-x="556" d="M7 505H165L279 162L395 505H538L356 0H192L7 505Z" />
<glyph unicode="w" glyph-name="w" horiz-adv-x="889" d="M5 505H162L255 124L362 505H525L631 124L730 505H877L704 0H543L439 374L333 0H170L5 505Z" />
<glyph unicode="x" glyph-name="x" horiz-adv-x="556" d="M16 505H191L286 340L385 505H539L375 259L544 0H369L267 185L164 0H9L178 271L16 505Z" />
<glyph unicode="y" glyph-name="y" horiz-adv-x="556" d="M14 505H174L285 155L398 505H545L354 9L293 -192H144L208 -2L14 505Z" />
<glyph unicode="z" glyph-name="z" horiz-adv-x="500" d="M32 0V130L288 406H39V505H453V378L197 102H463V0H32Z" />
<glyph unicode="{" glyph-name="braceleft" horiz-adv-x="333" d="M103 449V484Q103 514 104 532T110 577T124 621T151 658T194 690T259 711T348 723V641Q316 638 294 627T261 603T245 567T238 530T237 490V454Q237 376 204 328T79 271Q160 261 196 223Q237 182
237 88V51Q237 26 238 12T244 -25T261 -62T294 -86T348 -99V-181Q213 -175 153 -118Q126 -94 115 -58T103 58V93Q103 114 102 126T95 157T78 188T43 211T-15 228V314Q36 319 68 348Q103 379 103 449Z" />
<glyph unicode="|" glyph-name="bar" horiz-adv-x="278" d="M73 750H205V-250H73V750Z" />
<glyph unicode="}" glyph-name="braceright" horiz-adv-x="333" d="M230 93V58Q230 28 229 11T224 -34T210 -79T183 -116T139 -148T74 -169T-15 -181V-99Q17 -97 39 -86T72 -62T88 -26T95 11T96 51V88Q96 181 137 223Q173 261 254 271Q230 273 216 275T178 290T135
324Q115 347 106 374T96 454V490Q96 516 95 529T89 566T72 603T39 627T-15 641V723Q34 720 73 711T137 691T181 659T208 622T223 579T229 533T230 484V449Q230 381 262 349Q290 322 348 314V228Q307 221 282 207T246 172T233 134T230 93Z" />
<glyph unicode="~" glyph-name="asciitilde" horiz-adv-x="584" d="M102 173H18Q23 260 66 311T173 363Q196 363 279 338Q398 301 424 301Q473 301 482 361H567Q564 328 556 298T531 237T483 188T411 170Q379 170 232 217Q177 234 161 234Q137 234 122 217T102 173Z" />
</font>
</defs>
</svg>
