<?xml version="1.0" encoding="UTF-8"?>
<svg width="193px" height="91px" viewBox="0 0 193 91" version="1.1" xmlns="http://www.w3.org/2000/svg" xmlns:xlink="http://www.w3.org/1999/xlink">
    <!-- Generator: Sketch 50.2 (55047) - http://www.bohemiancoding.com/sketch -->
    <title>logo</title>
    <desc>Created with Sketch.</desc>
    <defs></defs>
    <g id="logo" stroke="none" stroke-width="1" fill="none" fill-rule="evenodd">
        <path d="M149.9817,0.5721 L158.4717,0.5721 C160.7327,1.7391 163.3157,1.6121 165.6777,2.4221 C180.4097,7.4771 188.1847,18.3781 191.3157,33.2861 C191.9457,36.2901 191.7647,39.4431 192.9957,42.3261 L192.9957,45.7581 C192.0947,46.7271 192.4907,47.9281 192.4877,49.0231 C192.4607,61.6731 192.4437,74.3231 192.5027,86.9731 C192.5117,88.9561 192.0647,89.9151 189.8467,89.8841 C181.2847,89.7621 172.7197,89.7971 164.1567,89.7731 C164.1277,76.6431 164.1267,63.5141 164.0477,50.3851 C164.0317,47.6331 163.8757,44.8651 163.5317,42.1361 C161.9167,29.2821 151.9827,23.5601 140.1317,28.5951 C136.9687,29.9391 134.3167,32.0421 131.6987,34.2431 C129.7387,35.8901 128.9747,37.7281 128.9907,40.3611 C129.0887,56.8211 129.0057,73.2811 128.9837,89.7421 C119.4427,89.8581 109.9007,90.0441 100.3617,89.6421 C100.3097,75.4601 100.2907,61.2791 100.1867,47.0971 C100.1567,42.9921 99.4777,38.9551 98.2687,35.0241 C96.8037,30.2651 93.5457,27.7181 88.7387,26.8311 C80.9357,25.3911 74.5007,27.9951 68.8257,33.2411 C68.0377,33.9691 67.4247,35.4581 65.8647,34.6461 C68.0187,27.0151 70.7437,19.5461 72.1107,11.8311 C73.2217,5.5631 76.8437,3.4311 82.1427,2.1911 C84.7497,1.5821 87.5007,1.7181 89.9887,0.5721 L91.6867,0.5721 C91.9677,1.2761 92.5987,1.1111 93.1287,1.1411 C103.9837,1.7791 112.9007,6.3361 119.7007,14.8781 C121.1837,16.7401 121.8837,16.3151 123.3057,14.9571 C130.4927,8.0961 138.6727,3.0401 148.5897,1.3001 C149.1127,1.2081 149.7577,1.2801 149.9817,0.5721" id="Fill-1" fill="#0D2277"></path>
        <path d="M0.5662,40.6106 C1.7622,38.0676 1.6692,35.2446 2.2562,32.5686 C5.7002,16.8766 14.4992,6.1796 30.2322,2.1256 C38.1582,0.0826 45.9562,0.9456 53.4772,4.2366 C54.7182,4.7786 55.7932,5.3726 56.2052,6.8706 C58.7102,15.9586 61.2742,25.0306 63.8022,34.1116 C63.8962,34.4486 63.8152,34.8356 63.8152,35.8676 C62.3502,34.5096 61.2912,33.5016 60.2052,32.5256 C54.8212,27.6876 48.6722,25.5396 41.4222,26.7966 C36.4832,27.6526 33.1762,30.2026 31.6432,35.1066 C30.0022,40.3536 29.5492,45.7576 29.5112,51.1956 C29.4202,64.2546 29.4492,77.3136 29.4302,90.3726 C20.5502,90.3726 11.6682,90.2936 2.7902,90.4336 C0.8222,90.4646 0.1652,89.9806 0.5662,88.0846 C0.6992,86.8686 0.9442,85.6536 0.9472,84.4376 C0.9762,71.0446 0.9752,57.6506 0.9502,44.2566 C0.9482,43.2326 0.7002,42.2076 0.5662,41.1826 L0.5662,40.6106 Z" id="Fill-5" fill="#A1AFE4"></path>
        <path d="M50.3714,90.3723 C55.0894,73.3463 59.8084,56.3193 64.5234,39.3013 C65.6774,39.4993 65.5774,40.3023 65.7384,40.8733 C70.0694,56.2493 74.3914,71.6283 78.6844,87.0153 C78.9874,88.1003 79.0574,89.2513 79.2354,90.3723 L50.3714,90.3723 Z" id="Fill-9" fill="#A1AFE4"></path>
    </g>
</svg>