<svg width="375" height="667" viewBox="0 0 375 667" xmlns="http://www.w3.org/2000/svg" xmlns:xlink="http://www.w3.org/1999/xlink"><title>task/01</title><defs><path id="a" d="M0 0h375v605H0z"/><filter x="-.7%" y="-.4%" width="101.3%" height="101.7%" filterUnits="objectBoundingBox" id="b"><feOffset dy="5" in="SourceAlpha" result="shadowOffsetOuter1"/><feColorMatrix values="0 0 0 0 0 0 0 0 0 0 0 0 0 0 0 0 0 0 0.05 0" in="shadowOffsetOuter1"/></filter><path id="d" d="M2.071 26.071l10 10h-10z"/><path id="e" d="M2.071 26.071l10 10h-10z"/><path id="f" d="M2.071 26.071l10 10h-10z"/><path id="g" d="M2.071 26.071l10 10h-10z"/><path id="h" d="M2.071 26.071l10 10h-10z"/></defs><g fill="none" fill-rule="evenodd"><path fill="#B0E278" d="M-1 607h375v60H-1z"/><path fill="#F1D54B" d="M-1 607h60v60H-1z"/><path fill="#D9F4BE" d="M314 607h60v60h-60z"/><path d="M340.906 648.979l.07.07.037.036c.047 0 .094.012.142.036l.071.036c.143.047.238.095.285.142h.285c.142.048.261.048.356 0h.143c.19-.047.356-.119.498-.214l.071-.07c.143-.096.226-.155.25-.179a.414.414 0 0 0 .07-.107l.036-.07 13.604-21.796c.238-.38.31-.783.214-1.21a1.56 1.56 0 0 0-.676-.998 1.463 1.463 0 0 0-1.176-.213c-.427.095-.76.308-.997.64l-12.607 20.157-6.909-6.766a1.702 1.702 0 0 0-1.14-.427c-.426 0-.794.166-1.103.498a1.543 1.543 0 0 0-.427 1.175c.023.451.201.82.534 1.104l8.333 8.12.036.036zM31.883 625c-2.788 0-5.172.989-7.15 2.967-1.977 1.978-2.966 4.361-2.966 7.15 0 2.367.745 4.49 2.237 6.371l-6.664 6.664a.947.947 0 0 0-.34.754c0 .308.105.567.316.778.21.21.47.316.778.316.308 0 .56-.113.754-.34l6.664-6.664c1.88 1.492 4.004 2.237 6.371 2.237 2.789 0 5.172-.989 7.15-2.966 1.978-1.978 2.967-4.362 2.967-7.15 0-2.789-.989-5.172-2.967-7.15-1.978-1.978-4.361-2.967-7.15-2.967zm0 18.677c-2.367 0-4.385-.835-6.055-2.505s-2.505-3.688-2.505-6.055c0-2.367.835-4.386 2.505-6.056s3.688-2.505 6.055-2.505c2.367 0 4.386.835 6.056 2.505s2.505 3.689 2.505 6.056-.835 4.385-2.505 6.055-3.689 2.505-6.056 2.505zM194.825 625h-16.65c-1.156 0-2.14.403-2.954 1.208-.814.806-1.221 1.779-1.221 2.918v13.208c0 1.14.362 2.05 1.086 2.734.725.684 1.665 1.026 2.82 1.026h5.176L186.5 650l3.418-3.906h5.176c1.155 0 2.095-.342 2.82-1.026.724-.683 1.086-1.595 1.086-2.734v-13.208c0-1.14-.407-2.112-1.22-2.918-.815-.805-1.8-1.208-2.955-1.208zm2.613 17.188c0 .57-.249 1.102-.745 1.599-.497.496-1.03.744-1.6.744h-6.25l-2.343 3.125-2.344-3.125h-6.25c-.57 0-1.102-.248-1.599-.744-.496-.497-.744-1.03-.744-1.6v-13.28c0-.57.248-1.103.744-1.6.497-.496 1.03-.745 1.6-.745h17.187c.57 0 1.102.249 1.599.745.496.497.744 1.03.744 1.6v13.28z" fill="#000"/><g transform="translate(-1 2)"><mask id="c" fill="#fff"><use xlink:href="#a"/></mask><use fill="#000" filter="url(#b)" xlink:href="#a"/><use fill="#FFF" xlink:href="#a"/><g mask="url(#c)"><g transform="translate(15 43)"><rect fill="#CCC" width="60" height="60" rx="30"/><g font-family="Helvetica"><text font-size="15" fill="#000" transform="translate(100)"><tspan x="0" y="15">Soluta, libero distinctio id </tspan> <tspan x="0" y="33">voluptatem cupiditate optio </tspan> <tspan x="0" y="51">inventore excepturi sed maxime et </tspan> <tspan x="0" y="69">doloribus eos enim nisi hic a, </tspan> <tspan x="0" y="87">explicabo unde qui est.</tspan></text><text font-size="12" fill="#9B9B9B" transform="translate(100)"><tspan x="0" y="111">User, 20 min ago</tspan></text></g><path fill="#000" d="M76 0h1v114h-1z"/><g transform="rotate(45 42.071 115.569)"><use fill="#000" xlink:href="#d"/><path stroke="#000" stroke-width="2" d="M3.071 28.485l6.586 6.586H3.07v-6.586z"/></g><path fill="#FFF" d="M78.571 24v14.142l-7.071-7.07z"/></g><g transform="translate(15 177)"><rect fill="#CCC" width="60" height="60" rx="30"/><g font-family="Helvetica"><text font-size="15" fill="#000" transform="translate(100)"><tspan x="0" y="15">optio inventore excepturi sed </tspan> <tspan x="0" y="33">maxime et doloribus eos enim nisi </tspan> <tspan x="0" y="51">hic a, explicabo unde qui est.</tspan></text><text font-size="12" fill="#9B9B9B" transform="translate(100)"><tspan x="0" y="75">User, 20 min ago</tspan></text></g><path fill="#000" d="M76 0h1v78h-1z"/><g transform="rotate(45 42.071 115.569)"><use fill="#000" xlink:href="#e"/><path stroke="#000" stroke-width="2" d="M3.071 28.485l6.586 6.586H3.07v-6.586z"/></g><path fill="#FFF" d="M78.571 24v14.142l-7.071-7.07z"/></g><g transform="translate(15 275)"><rect fill="#CCC" width="60" height="60" rx="30"/><g font-family="Helvetica"><text font-size="15" fill="#000" transform="translate(100)"><tspan x="0" y="15">Soluta, libero distinctio id </tspan> <tspan x="0" y="33">voluptatem cupiditate optio </tspan> <tspan x="0" y="51">inventore excepturi sed maxime et </tspan> <tspan x="0" y="69">doloribus eos enim nisi hic a, </tspan> <tspan x="0" y="87">explicabo unde qui est.</tspan></text><text font-size="12" fill="#9B9B9B" transform="translate(100)"><tspan x="0" y="111">User, 20 min ago</tspan></text></g><path fill="#000" d="M76 0h1v114h-1z"/><g transform="rotate(45 42.071 115.569)"><use fill="#000" xlink:href="#f"/><path stroke="#000" stroke-width="2" d="M3.071 28.485l6.586 6.586H3.07v-6.586z"/></g><path fill="#FFF" d="M78.571 24v14.142l-7.071-7.07z"/></g><g font-family="Helvetica"><text font-size="15" fill="#000" transform="translate(20 409)"><tspan x="0" y="15">optio inventore excepturi sed </tspan> <tspan x="0" y="33">maxime et doloribus eos enim nisi </tspan> <tspan x="0" y="51">hic a, explicabo unde qui est.</tspan></text><text font-size="12" fill="#9B9B9B" transform="translate(20 409)"><tspan x="149.279" y="75">User, 20 min ago</tspan></text></g><g transform="matrix(-1 0 0 1 360 409)"><rect fill="#CCC" width="60" height="60" rx="30"/><path fill="#000" d="M76 0h1v78h-1z"/><g transform="rotate(45 42.071 115.569)"><use fill="#000" xlink:href="#g"/><path stroke="#000" stroke-width="2" d="M3.071 28.485l6.586 6.586H3.07v-6.586z"/></g><path fill="#FFF" d="M78.571 24v14.142l-7.071-7.07z"/></g><g><g transform="translate(15 507)"><rect fill="#CCC" width="60" height="60" rx="30"/><g font-family="Helvetica"><text font-size="15" fill="#000" transform="translate(100)"><tspan x="0" y="15">Soluta, libero distinctio id </tspan> <tspan x="0" y="33">voluptatem cupiditate optio </tspan> <tspan x="0" y="51">inventore excepturi sed maxime et </tspan> <tspan x="0" y="69">doloribus eos enim nisi hic a, </tspan> <tspan x="0" y="87">explicabo unde qui est.</tspan></text><text font-size="12" fill="#9B9B9B" transform="translate(100)"><tspan x="0" y="111">User, 20 min ago</tspan></text></g><path fill="#000" d="M76 0h1v114h-1z"/><g transform="rotate(45 42.071 115.569)"><use fill="#000" xlink:href="#h"/><path stroke="#000" stroke-width="2" d="M3.071 28.485l6.586 6.586H3.07v-6.586z"/></g><path fill="#FFF" d="M78.571 24v14.142l-7.071-7.07z"/></g></g></g></g><path fill="#FFF" d="M-2 592h374v15H-2z"/><path d="M10.5 592h345.013" stroke="#9B9B9B" stroke-width="2" stroke-linecap="square" stroke-dasharray="6,5"/><g><path fill="#FFF" d="M0 20h375v60H0z"/><text font-family="Helvetica" font-size="30" fill="#000" transform="translate(0 20)"><tspan x="50" y="41">Project Title</tspan></text><path d="M28.082 61.269c.208.19.312.426.312.71 0 .283-.104.52-.312.709a.997.997 0 0 1-.696.298.86.86 0 0 1-.695-.298L15.312 51.195A.904.904 0 0 1 15 50.5c0-.274.104-.516.312-.724l11.38-11.492c.188-.19.42-.284.694-.284.275 0 .507.095.696.284.208.208.312.45.312.723a.904.904 0 0 1-.312.696L17.724 50.486l10.358 10.783z" fill="#000" opacity=".222"/><path d="M10.5 79h345.013" stroke="#9B9B9B" stroke-width="2" stroke-linecap="square" stroke-dasharray="6,5"/><text font-family="Helvetica" font-size="12" fill="#9B9B9B" transform="translate(0 20)"><tspan x="260" y="26">13 item</tspan> <tspan x="260" y="41">14 itemized</tspan></text><path fill-opacity=".05" fill="#000" d="M0 20h136v60H0z"/></g><path fill="#000" d="M0 0h375v20H0z"/></g></svg>