<svg width="375" height="667" viewBox="0 0 375 667" xmlns="http://www.w3.org/2000/svg" xmlns:xlink="http://www.w3.org/1999/xlink" style="background:#d9f4be"><title>task/02</title><defs><rect id="a" width="375" height="642" rx="3"/><filter x="-.7%" y="-.4%" width="102.7%" height="101.6%" filterUnits="objectBoundingBox" id="b"><feOffset dx="5" dy="5" in="SourceAlpha" result="shadowOffsetOuter1"/><feColorMatrix values="0 0 0 0 0 0 0 0 0 0 0 0 0 0 0 0 0 0 0.05 0" in="shadowOffsetOuter1"/></filter></defs><g fill="none" fill-rule="evenodd"><path fill="#000" d="M75 607h285v1H75z"/><text font-family="Helvetica" font-size="30" fill="#000" transform="translate(60 607)"><tspan x="15" y="41">Tasks</tspan></text><text font-family="Helvetica" font-size="13" fill="#666" transform="translate(60 607)"><tspan x="175" y="21">Libero distinctio id </tspan> <tspan x="175" y="36">voluptatem cupiditate </tspan> <tspan x="175" y="51">optio inventore </tspan></text><g fill="#000"><path d="M75 547h285v1H75z"/><text font-family="Helvetica" font-size="30" transform="translate(60 547)"><tspan x="15" y="41">My Tasks</tspan></text></g><g fill="#000"><path d="M75 487h285v1H75z"/><text font-family="Helvetica" font-size="30" transform="translate(60 487)"><tspan x="15" y="41">To Review</tspan></text></g><g fill="#000"><path d="M75 427h285v1H75z"/><text font-family="Helvetica" font-size="30" transform="translate(60 427)"><tspan x="15" y="41">To Assign</tspan></text></g><text font-family="Helvetica" font-size="15" fill="#000"><tspan x="199" y="574">12</tspan></text><text font-family="Helvetica" font-size="15" fill="#000"><tspan x="213" y="514">12</tspan></text><text font-family="Helvetica" font-size="15" fill="#000"><tspan x="202" y="454">12</tspan></text><g transform="translate(-315 -36)"><mask id="c" fill="#fff"><use xlink:href="#a"/></mask><use fill="#000" filter="url(#b)" xlink:href="#a"/><use fill="#FFF" xlink:href="#a"/><g mask="url(#c)"><text transform="translate(115 80)" fill="#000" font-size="15" font-family="Helvetica"><tspan x="0" y="15">Soluta, libero distinctio id </tspan> <tspan x="0" y="33">voluptatem cupiditate optio </tspan> <tspan x="0" y="51">inventore excepturi sed maxime et </tspan> <tspan x="0" y="69">doloribus eos enim nisi hic a, </tspan> <tspan x="0" y="87">explicabo unde qui est.</tspan></text><text transform="translate(115 214)" fill="#000" font-size="15" font-family="Helvetica"><tspan x="0" y="15">optio inventore excepturi sed </tspan> <tspan x="0" y="33">maxime et doloribus eos enim nisi </tspan> <tspan x="0" y="51">hic a, explicabo unde qui est.</tspan></text><text transform="translate(115 312)" fill="#000" font-size="15" font-family="Helvetica"><tspan x="0" y="15">Soluta, libero distinctio id </tspan> <tspan x="0" y="33">voluptatem cupiditate optio </tspan> <tspan x="0" y="51">inventore excepturi sed maxime et </tspan> <tspan x="0" y="69">doloribus eos enim nisi hic a, </tspan> <tspan x="0" y="87">explicabo unde qui est.</tspan></text><rect width="60" height="60" rx="30" transform="matrix(-1 0 0 1 360 446)" fill="#CCC"/><text transform="translate(115 544)" fill="#000" font-size="15" font-family="Helvetica"><tspan x="0" y="15">Soluta, libero distinctio id </tspan> <tspan x="0" y="33">voluptatem cupiditate optio </tspan> <tspan x="0" y="51">inventore excepturi sed maxime et </tspan> <tspan x="0" y="69">doloribus eos enim nisi hic a, </tspan> <tspan x="0" y="87">explicabo unde qui est.</tspan></text></g><path d="M14.5 628h345.013" stroke="#9B9B9B" stroke-width="2" stroke-linecap="square" stroke-dasharray="6,5" mask="url(#c)"/><path fill="#FFF" mask="url(#c)" d="M1 628h374v15H1z"/><g mask="url(#c)"><path fill="#FFF" d="M0 38h375v60H0z"/><text font-family="Helvetica" font-size="30" transform="translate(0 38)"><tspan x="50" y="41" fill="#000">Project Title</tspan></text><path d="M28.082 79.269c.208.19.312.426.312.71 0 .283-.104.52-.312.709a.997.997 0 0 1-.696.298.86.86 0 0 1-.695-.298L15.312 69.195A.904.904 0 0 1 15 68.5c0-.274.104-.516.312-.724l11.38-11.492c.188-.19.42-.284.694-.284.275 0 .507.095.696.284.208.208.312.45.312.723a.904.904 0 0 1-.312.696L17.724 68.486l10.358 10.783z" fill="#000" opacity=".222"/><path d="M10.5 97h345.013" stroke="#9B9B9B" stroke-width="2" stroke-linecap="square" stroke-dasharray="6,5"/><text font-family="Helvetica" font-size="12" transform="translate(0 38)"><tspan x="260" y="26" fill="#9B9B9B">13 item</tspan> <tspan x="260" y="41" fill="#9B9B9B">14 itemized</tspan></text><path fill-opacity=".05" fill="#000" d="M0 38h136v60H0z"/></g></g><path d="M25.906 648.979a47824.459 47824.459 0 0 0 .107.106c.047 0 .094.012.142.036l.071.036c.143.047.238.095.285.142h.285c.142.048.261.048.356 0h.143c.19-.047.356-.119.498-.214l.071-.07c.143-.096.226-.155.25-.179a.414.414 0 0 0 .07-.107l.036-.07 13.604-21.796c.238-.38.31-.783.214-1.21a1.56 1.56 0 0 0-.676-.998 1.463 1.463 0 0 0-1.176-.213c-.427.095-.76.308-.997.64L26.582 645.24l-6.909-6.766a1.702 1.702 0 0 0-1.14-.427c-.426 0-.794.166-1.103.498a1.543 1.543 0 0 0-.427 1.175c.023.451.201.82.534 1.104l8.333 8.12.036.036zM0 0h375v20H0z" fill="#000"/></g></svg>